<?xml version="1.0" encoding="utf-8"?>
<!-- Generator: Adobe Illustrator 23.0.3, SVG Export Plug-In . SVG Version: 6.00 Build 0)  -->
<svg version="1.1" id="Layer_1" xmlns="http://www.w3.org/2000/svg" xmlns:xlink="http://www.w3.org/1999/xlink" x="0px" y="0px"
	 viewBox="0 0 10 10" style="enable-background:new 0 0 10 10;" xml:space="preserve">
<path d="M8,6L8,6c0,1.1-0.9,2-2,2H4C2.9,8,2,7.1,2,6V4c0-1.1,0.9-2,2-2h0V0h0C1.8,0,0,1.8,0,4v2c0,2.2,1.8,4,4,4h2c2.2,0,4-1.8,4-4
	v0H8z"/>
<path d="M10,0H5l1.8,1.8L4.3,4.3c-0.4,0.4-0.4,1,0,1.4c0.4,0.4,1,0.4,1.4,0l2.5-2.5L10,5V0z"/>
<g>
</g>
<g>
</g>
<g>
</g>
<g>
</g>
<g>
</g>
<g>
</g>
</svg>
